<?xml version="1.0" standalone="no"?>
<!DOCTYPE svg PUBLIC "-//W3C//DTD SVG 20010904//EN"
 "http://www.w3.org/TR/2001/REC-SVG-20010904/DTD/svg10.dtd">
<svg version="1.0" xmlns="http://www.w3.org/2000/svg"
 width="878.000000pt" height="104.000000pt" viewBox="0 0 878.000000 104.000000"
 preserveAspectRatio="xMidYMid meet">

<g transform="translate(0.000000,104.000000) scale(0.100000,-0.100000)"
fill="#000000" stroke="none">
<path d="M560 897 l0 -105 -46 -11 c-59 -15 -134 -88 -152 -148 l-13 -42 -122
-3 -122 -3 -3 -54 c-3 -58 5 -71 46 -71 22 0 22 -1 22 -144 l0 -145 -32 -3
c-33 -3 -33 -4 -36 -60 -3 -53 -1 -58 20 -63 13 -3 226 -4 473 -3 l450 3 3 63
c3 61 2 62 -23 62 l-25 0 0 144 c0 142 0 145 23 148 20 3 22 8 22 63 l0 60
-119 5 -120 5 -7 27 c-19 73 -84 135 -167 159 -38 11 -43 16 -40 38 3 25 5 26
98 31 l95 5 0 70 0 70 -112 3 -113 3 0 -104z m190 28 l0 -45 -80 0 -80 0 0 45
0 45 80 0 80 0 0 -45z m-80 -190 c14 -7 35 -24 47 -37 23 -24 57 -97 50 -104
-2 -3 -89 -3 -194 -2 l-189 3 8 31 c26 100 179 160 278 109z m350 -205 l0 -30
-440 0 -440 0 0 30 0 30 440 0 440 0 0 -30z m-720 -216 l0 -145 -47 3 -48 3
-3 143 -3 142 51 0 50 0 0 -146z m130 1 l0 -145 -45 0 -45 0 0 145 0 145 45 0
45 0 0 -145z m140 0 l0 -145 -50 0 -50 0 0 145 0 145 50 0 50 0 0 -145z m130
0 l0 -145 -50 0 -50 0 0 145 0 145 50 0 50 0 0 -145z m130 0 l0 -145 -50 0
-50 0 0 145 0 145 50 0 50 0 0 -145z m130 -1 l0 -145 -47 3 -48 3 -3 143 -3
142 51 0 50 0 0 -146z m60 -204 l0 -30 -440 0 -440 0 0 30 0 30 440 0 440 0 0
-30z"/>
<path d="M1840 810 c-13 -8 -15 -53 -18 -285 l-3 -275 40 0 41 0 2 217 3 218
168 -210 c92 -116 180 -216 194 -224 24 -13 28 -12 45 9 17 21 18 43 16 284
l-3 261 -35 0 -35 0 -5 -216 -5 -217 -155 195 c-213 269 -212 267 -250 243z"/>
<path d="M3460 806 c-226 -48 -306 -315 -140 -470 68 -64 127 -88 216 -88 166
0 296 124 298 287 1 72 -36 158 -87 201 -76 64 -188 92 -287 70z m176 -75 c78
-35 123 -109 124 -199 0 -95 -39 -158 -125 -198 -129 -61 -269 -4 -320 130
-53 140 59 286 219 286 38 0 77 -8 102 -19z"/>
<path d="M5030 806 c-166 -35 -266 -202 -215 -357 25 -75 110 -159 185 -184
155 -52 313 13 382 155 31 63 31 169 0 227 -35 68 -77 108 -139 135 -72 32
-142 40 -213 24z m189 -81 c68 -38 102 -92 109 -171 6 -83 -15 -142 -71 -189
-88 -75 -216 -75 -305 0 -97 82 -104 238 -14 323 71 66 196 83 281 37z"/>
<path d="M7568 806 c-98 -21 -171 -86 -209 -186 -39 -103 -16 -194 70 -281 66
-66 133 -93 227 -92 146 1 271 113 289 258 17 125 -77 262 -200 294 -70 18
-119 20 -177 7z m193 -82 c71 -39 102 -92 107 -180 5 -84 -16 -134 -75 -183
-44 -36 -89 -51 -156 -51 -195 0 -299 246 -159 378 72 67 196 83 283 36z"/>
<path d="M8192 808 c-9 -9 -12 -86 -12 -285 l0 -273 35 0 35 0 2 220 3 219
170 -214 c144 -180 195 -235 220 -235 2 0 11 7 19 16 14 13 16 53 16 285 l0
269 -35 0 -35 0 -2 -222 -3 -223 -176 221 c-188 235 -207 252 -237 222z"/>
<path d="M1520 530 l0 -280 35 0 35 0 0 280 0 280 -35 0 -35 0 0 -280z"/>
<path d="M2592 798 c-9 -9 -12 -85 -12 -280 l0 -268 35 0 35 0 0 125 0 125
175 0 175 0 0 30 0 30 -175 0 -175 0 0 90 0 90 185 0 185 0 0 35 0 35 -208 0
c-148 0 -211 -3 -220 -12z"/>
<path d="M4070 531 l0 -281 35 0 35 0 0 125 0 125 180 0 180 0 0 -125 0 -125
35 0 35 0 0 280 0 280 -35 0 -35 0 0 -125 0 -125 -180 0 -179 0 -3 123 -3 122
-32 3 -33 3 0 -280z"/>
<path d="M5653 799 c-10 -10 -13 -80 -13 -281 l0 -268 35 0 35 0 0 105 0 105
83 0 83 0 78 -105 c76 -102 79 -105 117 -105 21 0 39 2 39 5 0 3 -34 50 -75
105 l-75 99 42 23 c50 28 76 62 88 114 18 75 -18 147 -93 187 -37 19 -61 22
-187 25 -108 3 -148 0 -157 -9z m315 -75 c49 -34 66 -109 36 -153 -27 -38 -74
-51 -189 -51 l-105 0 0 110 0 110 118 0 c90 0 123 -4 140 -16z"/>
<path d="M6330 530 l0 -280 35 0 35 0 0 280 0 280 -35 0 -35 0 0 -280z"/>
<path d="M6630 775 l0 -35 195 0 196 0 -201 -220 c-110 -121 -200 -227 -200
-235 0 -30 39 -35 275 -35 l236 0 -3 33 -3 32 -195 5 -195 5 160 175 c232 256
235 259 235 269 0 5 -7 17 -16 25 -13 14 -50 16 -250 16 l-234 0 0 -35z"/>
</g>
</svg>
